<svg xmlns="http://www.w3.org/2000/svg" viewBox="0 0 512 512" width="512" height="512">
  <!-- Sfondo Solido Scuro -->
  <rect x="16" y="16" width="480" height="480" rx="112" fill="#0C1017" />

  <!-- Elemento Unico: Viola #6C5CE7 -->
  <!-- Silhouette stilizzata: base controller morbida ed essenziale -->
  <path d="M 175 160
           C 215 170, 297 170, 337 160
           C 365 153, 390 175, 385 205
           L 370 295
           C 365 325, 330 340, 305 320
           L 275 295
           C 265 287, 247 287, 237 295
           L 207 320
           C 182 340, 147 325, 142 295
           L 127 205
           C 122 175, 147 153, 175 160 Z"
        fill="#6C5CE7" />

  <!-- Intaglio Negativo Centrale (Play Triangle perfetto nel colore dello sfondo) -->
  <path d="M 235 210
           C 235 203, 243 198, 249 202
           L 295 236
           C 301 240, 301 249, 295 253
           L 249 287
           C 243 291, 235 286, 235 279 Z"
        fill="#0C1017" />
</svg>
